<svg xmlns="http://www.w3.org/2000/svg" xmlns:xlink="http://www.w3.org/1999/xlink" width="546pt" height="260pt" viewBox="0.00 0.00 545.80 260.00">
<g id="graph0" class="graph" transform="scale(1 1) rotate(0) translate(4 256)">
<title>G</title>
<polygon fill="white" stroke="none" points="-4,4 -4,-256 541.8,-256 541.8,4 -4,4"/>
<!-- a -->
<g id="node1" class="node">
<title>a</title>
<ellipse fill="none" stroke="black" cx="355.8" cy="-234" rx="27" ry="18"/>
<text text-anchor="middle" x="355.8" y="-229.8" font-family="Times,serif" font-size="14.00">a</text>
</g>
<!-- Flask -->
<g id="node2" class="node">
<title>Flask</title>
<ellipse fill="none" stroke="black" cx="193.8" cy="-162" rx="31.96" ry="18"/>
<text text-anchor="middle" x="193.8" y="-157.8" font-family="Times,serif" font-size="14.00">Flask</text>
</g>
<!-- a&#45;&gt;Flask -->
<g id="edge1" class="edge">
<title>a-&gt;Flask</title>
<path fill="none" stroke="black" d="M333.62,-223.41C306.6,-211.74 260.65,-191.88 228.84,-178.14"/>
<polygon fill="black" stroke="black" points="230.59,-175.08 220.03,-174.33 227.82,-181.51 230.59,-175.08"/>
</g>
<!-- pipdeptree -->
<g id="node8" class="node">
<title>pipdeptree</title>
<ellipse fill="none" stroke="black" cx="295.8" cy="-162" rx="51.79" ry="18"/>
<text text-anchor="middle" x="295.8" y="-157.8" font-family="Times,serif" font-size="14.00">pipdeptree</text>
</g>
<!-- a&#45;&gt;pipdeptree -->
<g id="edge7" class="edge">
<title>a-&gt;pipdeptree</title>
<path fill="none" stroke="black" d="M342.78,-217.81C335.4,-209.19 325.96,-198.18 317.48,-188.29"/>
<polygon fill="black" stroke="black" points="320.21,-186.09 311.04,-180.78 314.89,-190.65 320.21,-186.09"/>
</g>
<!-- setuptools -->
<g id="node9" class="node">
<title>setuptools</title>
<ellipse fill="none" stroke="black" cx="415.8" cy="-162" rx="50.2" ry="18"/>
<text text-anchor="middle" x="415.8" y="-157.8" font-family="Times,serif" font-size="14.00">setuptools</text>
</g>
<!-- a&#45;&gt;setuptools -->
<g id="edge8" class="edge">
<title>a-&gt;setuptools</title>
<path fill="none" stroke="black" d="M368.82,-217.81C376.21,-209.19 385.65,-198.18 394.12,-188.29"/>
<polygon fill="black" stroke="black" points="396.72,-190.65 400.57,-180.78 391.4,-186.09 396.72,-190.65"/>
</g>
<!-- pip -->
<g id="node10" class="node">
<title>pip</title>
<ellipse fill="none" stroke="black" cx="510.8" cy="-162" rx="27" ry="18"/>
<text text-anchor="middle" x="510.8" y="-157.8" font-family="Times,serif" font-size="14.00">pip</text>
</g>
<!-- a&#45;&gt;pip -->
<g id="edge9" class="edge">
<title>a-&gt;pip</title>
<path fill="none" stroke="black" d="M377.8,-223.38C401.73,-212.87 441.09,-195.47 474.8,-180 476.11,-179.4 477.44,-178.79 478.79,-178.16"/>
<polygon fill="black" stroke="black" points="480.19,-181.37 487.77,-173.97 477.23,-175.03 480.19,-181.37"/>
</g>
<!-- click -->
<g id="node3" class="node">
<title>click</title>
<ellipse fill="none" stroke="black" cx="29.8" cy="-90" rx="29.8" ry="18"/>
<text text-anchor="middle" x="29.8" y="-85.8" font-family="Times,serif" font-size="14.00">click</text>
</g>
<!-- Flask&#45;&gt;click -->
<g id="edge2" class="edge">
<title>Flask-&gt;click</title>
<path fill="none" stroke="black" d="M168.87,-150.51C143.62,-139.88 103.45,-122.9 68.8,-108 67.08,-107.26 65.31,-106.5 63.52,-105.72"/>
<polygon fill="black" stroke="black" points="65.25,-102.66 54.69,-101.89 62.47,-109.08 65.25,-102.66"/>
</g>
<!-- itsdangerous -->
<g id="node4" class="node">
<title>itsdangerous</title>
<ellipse fill="none" stroke="black" cx="137.8" cy="-90" rx="59.85" ry="18"/>
<text text-anchor="middle" x="137.8" y="-85.8" font-family="Times,serif" font-size="14.00">itsdangerous</text>
</g>
<!-- Flask&#45;&gt;itsdangerous -->
<g id="edge3" class="edge">
<title>Flask-&gt;itsdangerous</title>
<path fill="none" stroke="black" d="M181.1,-145.12C174.35,-136.68 165.89,-126.1 158.24,-116.55"/>
<polygon fill="black" stroke="black" points="161.17,-114.6 152.19,-108.98 155.7,-118.97 161.17,-114.6"/>
</g>
<!-- Jinja2 -->
<g id="node5" class="node">
<title>Jinja2</title>
<ellipse fill="none" stroke="black" cx="249.8" cy="-90" rx="34.1" ry="18"/>
<text text-anchor="middle" x="249.8" y="-85.8" font-family="Times,serif" font-size="14.00">Jinja2</text>
</g>
<!-- Flask&#45;&gt;Jinja2 -->
<g id="edge4" class="edge">
<title>Flask-&gt;Jinja2</title>
<path fill="none" stroke="black" d="M206.51,-145.12C213.46,-136.43 222.21,-125.49 230.03,-115.72"/>
<polygon fill="black" stroke="black" points="232.69,-118 236.2,-108 227.22,-113.63 232.69,-118"/>
</g>
<!-- Werkzeug -->
<g id="node7" class="node">
<title>Werkzeug</title>
<ellipse fill="none" stroke="black" cx="352.8" cy="-90" rx="50.71" ry="18"/>
<text text-anchor="middle" x="352.8" y="-85.8" font-family="Times,serif" font-size="14.00">Werkzeug</text>
</g>
<!-- Flask&#45;&gt;Werkzeug -->
<g id="edge6" class="edge">
<title>Flask-&gt;Werkzeug</title>
<path fill="none" stroke="black" d="M218.3,-150.22C243.05,-139.32 281.75,-122.28 311.29,-109.28"/>
<polygon fill="black" stroke="black" points="312.59,-112.53 320.34,-105.29 309.77,-106.12 312.59,-112.53"/>
</g>
<!-- MarkupSafe -->
<g id="node6" class="node">
<title>MarkupSafe</title>
<ellipse fill="none" stroke="black" cx="249.8" cy="-18" rx="58.77" ry="18"/>
<text text-anchor="middle" x="249.8" y="-13.8" font-family="Times,serif" font-size="14.00">MarkupSafe</text>
</g>
<!-- Jinja2&#45;&gt;MarkupSafe -->
<g id="edge5" class="edge">
<title>Jinja2-&gt;MarkupSafe</title>
<path fill="none" stroke="black" d="M249.8,-71.7C249.8,-64.41 249.8,-55.73 249.8,-47.54"/>
<polygon fill="black" stroke="black" points="253.3,-47.62 249.8,-37.62 246.3,-47.62 253.3,-47.62"/>
</g>
</g>
</svg>